<?xml version="1.0" encoding="utf-8"?>
<!-- Generator: Adobe Illustrator 16.2.0, SVG Export Plug-In . SVG Version: 6.00 Build 0)  -->
<!DOCTYPE svg PUBLIC "-//W3C//DTD SVG 1.1//EN" "http://www.w3.org/Graphics/SVG/1.1/DTD/svg11.dtd">
<svg version="1.1" id="レイヤー_1" xmlns="http://www.w3.org/2000/svg" xmlns:xlink="http://www.w3.org/1999/xlink" x="0px"
	 y="0px" width="250px" height="40.33px" viewBox="0 0 250 40.33" enable-background="new 0 0 250 40.33" xml:space="preserve">
<g>
	<path d="M31.001,7.805H19.879v31.844h-8.812V7.805H0V0.653h31.001V7.805z"/>
	<path d="M59.638,39.649H36.25V0.653h22.49v7.152H45.034v8.675h12.754v7.125H45.034v8.92h14.604V39.649z"/>
	<path d="M64.098,38.153v-8.701c1.577,1.324,3.29,2.316,5.139,2.979c1.849,0.662,3.716,0.992,5.602,0.992
		c1.105,0,2.071-0.1,2.896-0.299c0.825-0.199,1.514-0.477,2.067-0.829c0.553-0.354,0.965-0.771,1.237-1.251
		c0.271-0.479,0.408-1.001,0.408-1.564c0-0.76-0.217-1.44-0.652-2.039c-0.435-0.598-1.029-1.15-1.782-1.658
		c-0.752-0.508-1.645-0.997-2.678-1.469c-1.034-0.472-2.148-0.953-3.345-1.441c-3.046-1.27-5.316-2.819-6.812-4.65
		c-1.496-1.831-2.244-4.042-2.244-6.635c0-2.03,0.408-3.775,1.224-5.235c0.816-1.459,1.926-2.661,3.332-3.604
		c1.404-0.942,3.031-1.636,4.881-2.08C75.22,0.222,77.178,0,79.245,0c2.03,0,3.83,0.123,5.398,0.367
		c1.567,0.245,3.014,0.622,4.337,1.129v8.131c-0.653-0.453-1.364-0.852-2.135-1.196c-0.771-0.344-1.564-0.63-2.379-0.857
		c-0.816-0.227-1.628-0.394-2.434-0.503c-0.807-0.108-1.573-0.164-2.298-0.164c-0.997,0-1.903,0.095-2.719,0.286
		c-0.816,0.19-1.505,0.458-2.067,0.802c-0.562,0.345-0.998,0.757-1.305,1.238c-0.309,0.48-0.462,1.019-0.462,1.618
		c0,0.653,0.172,1.237,0.517,1.754c0.344,0.516,0.833,1.006,1.468,1.468c0.634,0.462,1.404,0.916,2.312,1.36
		c0.906,0.444,1.931,0.902,3.073,1.373c1.559,0.653,2.959,1.346,4.202,2.081c1.241,0.734,2.306,1.563,3.195,2.488
		c0.888,0.925,1.568,1.979,2.04,3.168c0.471,1.187,0.707,2.569,0.707,4.147c0,2.174-0.413,4.002-1.237,5.479
		c-0.825,1.479-1.945,2.676-3.359,3.59c-1.414,0.915-3.059,1.573-4.936,1.971c-1.876,0.398-3.857,0.599-5.942,0.599
		c-2.14,0-4.175-0.181-6.105-0.544C67.185,39.423,65.512,38.879,64.098,38.153z"/>
	<path d="M124.497,7.805h-11.123v31.844h-8.811V7.805H93.495V0.653h31.002V7.805z"/>
	<path d="M143.314,38.153v-8.701c1.578,1.324,3.291,2.316,5.141,2.979s3.716,0.992,5.602,0.992c1.107,0,2.071-0.1,2.896-0.299
		c0.824-0.199,1.514-0.477,2.066-0.829c0.554-0.354,0.965-0.771,1.238-1.251c0.271-0.479,0.408-1.001,0.408-1.564
		c0-0.76-0.218-1.44-0.652-2.039c-0.436-0.598-1.029-1.15-1.781-1.658c-0.754-0.508-1.646-0.997-2.68-1.469
		c-1.033-0.472-2.148-0.953-3.345-1.441c-3.045-1.27-5.315-2.819-6.812-4.65s-2.244-4.042-2.244-6.635
		c0-2.03,0.408-3.775,1.224-5.235c0.815-1.459,1.926-2.661,3.332-3.604c1.403-0.942,3.032-1.636,4.881-2.08
		C154.438,0.222,156.396,0,158.462,0c2.031,0,3.83,0.123,5.397,0.367c1.568,0.245,3.016,0.622,4.339,1.129v8.131
		c-0.652-0.453-1.365-0.852-2.136-1.196c-0.771-0.344-1.563-0.63-2.379-0.857c-0.814-0.227-1.627-0.394-2.434-0.503
		c-0.809-0.108-1.572-0.164-2.297-0.164c-0.998,0-1.904,0.095-2.721,0.286c-0.815,0.191-1.504,0.458-2.066,0.802
		c-0.563,0.345-0.997,0.757-1.305,1.238c-0.31,0.48-0.463,1.019-0.463,1.618c0,0.653,0.174,1.237,0.518,1.754
		c0.344,0.516,0.834,1.006,1.468,1.468c0.636,0.462,1.406,0.916,2.312,1.36c0.908,0.444,1.932,0.902,3.074,1.373
		c1.559,0.653,2.959,1.346,4.201,2.081c1.242,0.734,2.307,1.563,3.196,2.488c0.888,0.925,1.567,1.979,2.039,3.168
		c0.471,1.187,0.708,2.569,0.708,4.147c0,2.174-0.413,4.002-1.238,5.479c-0.824,1.479-1.943,2.676-3.359,3.59
		c-1.414,0.916-3.059,1.573-4.936,1.971c-1.877,0.398-3.857,0.599-5.941,0.599c-2.141,0-4.174-0.181-6.105-0.544
		C146.4,39.423,144.729,38.879,143.314,38.153z"/>
	<path d="M185.113,39.649h-8.782V0.653h8.782V39.649z"/>
	<path d="M221.364,7.805h-11.122v31.844h-8.811V7.805h-11.07V0.653h31.003V7.805z"/>
	<path d="M250,39.649h-23.387V0.653h22.488v7.152h-13.705v8.675h12.754v7.125h-12.754v8.92H250V39.649z"/>
</g>
</svg>
