<?xml version="1.0" encoding="utf-8"?>
<!-- Generator: Adobe Illustrator 16.2.0, SVG Export Plug-In . SVG Version: 6.00 Build 0)  -->
<!DOCTYPE svg PUBLIC "-//W3C//DTD SVG 1.1//EN" "http://www.w3.org/Graphics/SVG/1.1/DTD/svg11.dtd">
<svg version="1.1" id="レイヤー_1" xmlns="http://www.w3.org/2000/svg" xmlns:xlink="http://www.w3.org/1999/xlink" x="0px"
	 y="0px" width="250px" height="40.33px" viewBox="0 0 250 40.33" enable-background="new 0 0 250 40.33" xml:space="preserve">
<g>
	<path fill="#FFFFFF" d="M31.001,7.805H19.879V39.65h-8.812V7.805H0V0.653h31.001V7.805z"/>
	<path fill="#FFFFFF" d="M59.638,39.65H36.25V0.653h22.49v7.152H45.034v8.675h12.754v7.125H45.034v8.919h14.604V39.65z"/>
	<path fill="#FFFFFF" d="M64.098,38.154v-8.702c1.577,1.324,3.29,2.316,5.139,2.978c1.849,0.663,3.716,0.993,5.602,0.993
		c1.105,0,2.071-0.1,2.896-0.299c0.825-0.199,1.514-0.476,2.067-0.829c0.553-0.354,0.965-0.771,1.237-1.251
		c0.271-0.479,0.408-1.001,0.408-1.564c0-0.761-0.217-1.441-0.652-2.039s-1.029-1.151-1.782-1.659
		c-0.752-0.507-1.645-0.997-2.678-1.469c-1.034-0.471-2.148-0.952-3.345-1.441c-3.046-1.269-5.316-2.819-6.812-4.65
		c-1.496-1.831-2.244-4.042-2.244-6.635c0-2.03,0.408-3.775,1.224-5.235c0.816-1.459,1.926-2.661,3.332-3.604
		c1.404-0.942,3.031-1.636,4.881-2.08C75.22,0.222,77.178,0,79.245,0c2.03,0,3.83,0.123,5.398,0.367
		c1.567,0.245,3.014,0.622,4.337,1.129v8.131c-0.653-0.453-1.364-0.852-2.135-1.196s-1.564-0.63-2.379-0.857
		c-0.816-0.227-1.628-0.394-2.434-0.503c-0.807-0.108-1.573-0.164-2.298-0.164c-0.997,0-1.903,0.095-2.719,0.286
		c-0.816,0.19-1.505,0.458-2.067,0.802c-0.562,0.345-0.998,0.757-1.305,1.238c-0.309,0.48-0.462,1.019-0.462,1.618
		c0,0.653,0.172,1.237,0.517,1.754c0.344,0.516,0.833,1.006,1.468,1.468c0.634,0.462,1.404,0.916,2.312,1.36
		c0.906,0.444,1.931,0.902,3.073,1.373c1.559,0.653,2.959,1.346,4.202,2.081c1.241,0.734,2.306,1.563,3.195,2.488
		c0.888,0.925,1.568,1.98,2.04,3.168c0.471,1.187,0.707,2.569,0.707,4.147c0,2.175-0.413,4.002-1.237,5.479
		c-0.825,1.479-1.945,2.675-3.359,3.59s-3.059,1.573-4.936,1.971c-1.876,0.398-3.857,0.598-5.942,0.598
		c-2.14,0-4.175-0.181-6.105-0.544C67.185,39.423,65.512,38.879,64.098,38.154z"/>
	<path fill="#FFFFFF" d="M124.497,7.805h-11.123V39.65h-8.811V7.805H93.495V0.653h31.002V7.805z"/>
	<path fill="#FFFFFF" d="M143.315,38.154v-8.702c1.577,1.324,3.29,2.316,5.14,2.978c1.849,0.663,3.716,0.993,5.602,0.993
		c1.107,0,2.071-0.1,2.896-0.299c0.825-0.199,1.514-0.476,2.067-0.829c0.553-0.354,0.965-0.771,1.238-1.251
		c0.272-0.479,0.408-1.001,0.408-1.564c0-0.761-0.218-1.441-0.653-2.039c-0.435-0.598-1.028-1.151-1.781-1.659
		c-0.753-0.507-1.645-0.997-2.679-1.469c-1.033-0.471-2.148-0.952-3.345-1.441c-3.045-1.269-5.316-2.819-6.812-4.65
		c-1.495-1.831-2.244-4.042-2.244-6.635c0-2.03,0.408-3.775,1.224-5.235c0.816-1.459,1.926-2.661,3.332-3.604
		c1.404-0.942,3.032-1.636,4.881-2.08C154.438,0.222,156.396,0,158.462,0c2.031,0,3.83,0.123,5.398,0.367
		c1.568,0.245,3.015,0.622,4.338,1.129v8.131c-0.652-0.453-1.365-0.852-2.135-1.196c-0.771-0.344-1.564-0.63-2.379-0.857
		c-0.815-0.227-1.628-0.394-2.434-0.503c-0.808-0.108-1.572-0.164-2.297-0.164c-0.998,0-1.904,0.095-2.72,0.286
		s-1.505,0.458-2.067,0.802c-0.562,0.345-0.997,0.757-1.305,1.238c-0.309,0.48-0.462,1.019-0.462,1.618
		c0,0.653,0.173,1.237,0.517,1.754c0.344,0.516,0.834,1.006,1.468,1.468c0.635,0.462,1.406,0.916,2.312,1.36
		c0.907,0.444,1.931,0.902,3.073,1.373c1.559,0.653,2.959,1.346,4.202,2.081c1.242,0.734,2.307,1.563,3.196,2.488
		c0.887,0.925,1.567,1.98,2.039,3.168c0.471,1.187,0.708,2.569,0.708,4.147c0,2.175-0.413,4.002-1.238,5.479
		c-0.825,1.479-1.944,2.675-3.359,3.59c-1.414,0.916-3.059,1.573-4.936,1.971s-3.857,0.598-5.941,0.598
		c-2.141,0-4.175-0.181-6.106-0.544C146.401,39.423,144.729,38.879,143.315,38.154z"/>
	<path fill="#FFFFFF" d="M185.114,39.65h-8.783V0.653h8.783V39.65z"/>
	<path fill="#FFFFFF" d="M221.364,7.805h-11.122V39.65h-8.811V7.805h-11.069V0.653h31.002V7.805z"/>
	<path fill="#FFFFFF" d="M250,39.65h-23.387V0.653h22.489v7.152h-13.706v8.675h12.755v7.125h-12.755v8.919H250V39.65z"/>
</g>
</svg>
